<mxfile modified="2024-06-14T04:20:03.956Z" host="app.diagrams.net" agent="Mozilla/5.0 (X11; Ubuntu; Linux x86_64; rv:126.0) Gecko/20100101 Firefox/126.0" etag="I_2rb-XNKtjVNtD-L6Cn" version="24.4.8" type="device">
  <diagram id="l8hXMBHkgcEJcSW0mbfh" name="Page-1">
    <mxGraphModel dx="921" dy="421" grid="1" gridSize="10" guides="1" tooltips="1" connect="1" arrows="1" fold="1" page="1" pageScale="1" pageWidth="1169" pageHeight="827" math="0" shadow="0">
      <root>
        <mxCell id="0" />
        <mxCell id="1" parent="0" />
        <mxCell id="c1tY_rsKCSuWT5S8O4aU-46" value="" style="strokeColor=#dddddd;shadow=1;strokeWidth=1;rounded=1;absoluteArcSize=1;arcSize=2;" parent="1" vertex="1">
          <mxGeometry x="424.65" y="169" width="140" height="44" as="geometry" />
        </mxCell>
        <mxCell id="c1tY_rsKCSuWT5S8O4aU-38" value="" style="strokeColor=#dddddd;shadow=1;strokeWidth=1;rounded=1;absoluteArcSize=1;arcSize=2;" parent="1" vertex="1">
          <mxGeometry x="684.15" y="169" width="140" height="44" as="geometry" />
        </mxCell>
        <mxCell id="c1tY_rsKCSuWT5S8O4aU-1" value="" style="strokeColor=#dddddd;shadow=1;strokeWidth=1;rounded=1;absoluteArcSize=1;arcSize=2;" parent="1" vertex="1">
          <mxGeometry x="450.65" y="569" width="130" height="44" as="geometry" />
        </mxCell>
        <mxCell id="c1tY_rsKCSuWT5S8O4aU-2" value="&lt;b&gt;ESP32&lt;/b&gt;" style="sketch=0;dashed=0;connectable=0;html=1;fillColor=#757575;strokeColor=none;shape=mxgraph.gcp2.gateway;part=1;labelPosition=right;verticalLabelPosition=middle;align=left;verticalAlign=middle;spacingLeft=5;fontSize=12;" parent="c1tY_rsKCSuWT5S8O4aU-1" vertex="1">
          <mxGeometry y="0.5" width="32" height="32" relative="1" as="geometry">
            <mxPoint x="5" y="-16" as="offset" />
          </mxGeometry>
        </mxCell>
        <mxCell id="c1tY_rsKCSuWT5S8O4aU-3" value="" style="outlineConnect=0;dashed=0;verticalLabelPosition=bottom;verticalAlign=top;align=center;html=1;shape=mxgraph.aws3.alexa_enabled_device;fillColor=#5294CF;gradientColor=none;" parent="c1tY_rsKCSuWT5S8O4aU-1" vertex="1">
          <mxGeometry y="2.25" width="36.67857142857143" height="39.5" as="geometry" />
        </mxCell>
        <mxCell id="c1tY_rsKCSuWT5S8O4aU-5" value="" style="image;aspect=fixed;perimeter=ellipsePerimeter;html=1;align=center;shadow=0;dashed=0;fontColor=#4277BB;labelBackgroundColor=default;fontSize=12;spacingTop=3;image=img/lib/ibm/users/sensor.svg;" parent="c1tY_rsKCSuWT5S8O4aU-1" vertex="1">
          <mxGeometry x="90.00142857142856" y="8.07" width="27.857142857142858" height="27.857142857142858" as="geometry" />
        </mxCell>
        <mxCell id="G6bIGcvWe1hNYtXJWKbi-17" value="" style="dashed=0;outlineConnect=0;html=1;align=center;labelPosition=center;verticalLabelPosition=bottom;verticalAlign=top;shape=mxgraph.weblogos.arduino;fillColor=#36868D;strokeColor=none" vertex="1" parent="c1tY_rsKCSuWT5S8O4aU-1">
          <mxGeometry x="50.77000000000004" y="29.75" width="28.47" height="12" as="geometry" />
        </mxCell>
        <mxCell id="c1tY_rsKCSuWT5S8O4aU-6" value="" style="strokeColor=#dddddd;shadow=1;strokeWidth=1;rounded=1;absoluteArcSize=1;arcSize=2;" parent="1" vertex="1">
          <mxGeometry x="620.65" y="549" width="130" height="44" as="geometry" />
        </mxCell>
        <mxCell id="c1tY_rsKCSuWT5S8O4aU-7" value="&lt;b&gt;Virtual&lt;/b&gt;" style="sketch=0;dashed=0;connectable=0;html=1;fillColor=#757575;strokeColor=none;shape=mxgraph.gcp2.gateway;part=1;labelPosition=right;verticalLabelPosition=middle;align=left;verticalAlign=middle;spacingLeft=5;fontSize=12;" parent="c1tY_rsKCSuWT5S8O4aU-6" vertex="1">
          <mxGeometry y="0.5" width="32" height="32" relative="1" as="geometry">
            <mxPoint x="5" y="-16" as="offset" />
          </mxGeometry>
        </mxCell>
        <mxCell id="c1tY_rsKCSuWT5S8O4aU-8" value="" style="outlineConnect=0;dashed=0;verticalLabelPosition=bottom;verticalAlign=top;align=center;html=1;shape=mxgraph.aws3.alexa_enabled_device;fillColor=#5294CF;gradientColor=none;" parent="c1tY_rsKCSuWT5S8O4aU-6" vertex="1">
          <mxGeometry y="2.25" width="36.67857142857143" height="39.5" as="geometry" />
        </mxCell>
        <mxCell id="G6bIGcvWe1hNYtXJWKbi-16" value="" style="shape=image;verticalLabelPosition=bottom;labelBackgroundColor=default;verticalAlign=top;aspect=fixed;imageAspect=0;image=https://upload.wikimedia.org/wikipedia/commons/thumb/c/c3/Python-logo-notext.svg/640px-Python-logo-notext.svg.png;" vertex="1" parent="c1tY_rsKCSuWT5S8O4aU-6">
          <mxGeometry x="89.35000000000002" y="1.75" width="36.52" height="40" as="geometry" />
        </mxCell>
        <mxCell id="c1tY_rsKCSuWT5S8O4aU-12" value="" style="strokeColor=#dddddd;shadow=1;strokeWidth=1;rounded=1;absoluteArcSize=1;arcSize=2;" parent="1" vertex="1">
          <mxGeometry x="290.65" y="549" width="130" height="44" as="geometry" />
        </mxCell>
        <mxCell id="c1tY_rsKCSuWT5S8O4aU-13" value="&lt;b&gt;Virtual&lt;/b&gt;" style="sketch=0;dashed=0;connectable=0;html=1;fillColor=#757575;strokeColor=none;shape=mxgraph.gcp2.gateway;part=1;labelPosition=right;verticalLabelPosition=middle;align=left;verticalAlign=middle;spacingLeft=5;fontSize=12;" parent="c1tY_rsKCSuWT5S8O4aU-12" vertex="1">
          <mxGeometry y="0.5" width="32" height="32" relative="1" as="geometry">
            <mxPoint x="5" y="-16" as="offset" />
          </mxGeometry>
        </mxCell>
        <mxCell id="c1tY_rsKCSuWT5S8O4aU-14" value="" style="outlineConnect=0;dashed=0;verticalLabelPosition=bottom;verticalAlign=top;align=center;html=1;shape=mxgraph.aws3.alexa_enabled_device;fillColor=#5294CF;gradientColor=none;" parent="c1tY_rsKCSuWT5S8O4aU-12" vertex="1">
          <mxGeometry y="2.25" width="36.67857142857143" height="39.5" as="geometry" />
        </mxCell>
        <mxCell id="G6bIGcvWe1hNYtXJWKbi-15" value="" style="shape=image;verticalLabelPosition=bottom;labelBackgroundColor=default;verticalAlign=top;aspect=fixed;imageAspect=0;image=https://upload.wikimedia.org/wikipedia/commons/thumb/c/c3/Python-logo-notext.svg/640px-Python-logo-notext.svg.png;" vertex="1" parent="c1tY_rsKCSuWT5S8O4aU-12">
          <mxGeometry x="89.35000000000002" y="1.75" width="36.52" height="40" as="geometry" />
        </mxCell>
        <mxCell id="c1tY_rsKCSuWT5S8O4aU-26" value="" style="strokeColor=#dddddd;shadow=1;strokeWidth=1;rounded=1;absoluteArcSize=1;arcSize=2;" parent="1" vertex="1">
          <mxGeometry x="380.65" y="360.88" width="250" height="88.12" as="geometry" />
        </mxCell>
        <mxCell id="c1tY_rsKCSuWT5S8O4aU-27" value="&lt;b&gt;&lt;font style=&quot;font-size: 14px;&quot;&gt;ThingsBoard&lt;/font&gt;&lt;/b&gt;" style="editableCssRules=.*;html=1;fontColor=#999999;shape=image;verticalLabelPosition=middle;verticalAlign=middle;labelPosition=right;align=left;spacingLeft=20;part=1;points=[];imageAspect=0;image=data:image/svg+xml,PHN2ZyB4bWxucz0iaHR0cDovL3d3dy53My5vcmcvMjAwMC9zdmciIHhtbG5zOnY9Imh0dHBzOi8vdmVjdGEuaW8vbmFubyIgd2lkdGg9IjE5LjcwNjUzMTUyNDY1ODIwMyIgaGVpZ2h0PSIxOS45ODM4MjE4Njg4OTY0ODQiIGZpbGwtcnVsZT0iZXZlbm9kZCIgdmlld0JveD0iLTAuMDAwMjA5NTQ2OTY4MTA4MDQzMDcgMC4wMDAxNzcyNDA4Mjg2MzQyMzk3MyAxOS43MDY1MzE1MjQ2NTgyMDMgMTkuOTgzODIxODY4ODk2NDg0Ij4mI3hhOwk8c3R5bGUgdHlwZT0idGV4dC9jc3MiPiYjeGE7CS5zdDB7ZmlsbDojNDI4NWY0O30mI3hhOwkuc3Qxe2ZpbGw6IzY2OWRmNjt9JiN4YTsJPC9zdHlsZT4mI3hhOwk8cGF0aCBjbGFzcz0ic3QwIiBkPSJNMTAuMzQ1IDEwLjM5NnYtNC40M2gwYTEuMTQgMS4xNCAwIDAgMC0uNS0yLjE2NCAxLjE0IDEuMTQgMCAwIDAtLjUgMi4xNjR2NC40MmgtNC4yN3YtMi44MmExLjE0IDEuMTQgMCAwIDAtLjUzLTIuMTUgMS4xNCAxLjE0IDAgMCAwLS41MiAyLjE1djIuODNoLS4yMmEzLjgyIDMuODIgMCAwIDEtMi43MjItNi40ODUgMy44MiAzLjgyIDAgMCAxIDQuMTIyLS44OTUgNS4yMiA1LjIyIDAgMCAxIDkuNDQtLjA1IDQgNCAwIDAgMSAxLjIzLS4yaDBhMy44MyAzLjgzIDAgMSAxIDAgNy42NmgtLjI1di0yLjg2YTEuMTQgMS4xNCAwIDAgMC0uNTMtMi4xNDkgMS4xNCAxLjE0IDAgMCAwLS41MyAyLjE0OXYyLjgzeiIvPiYjeGE7CTxwYXRoIGNsYXNzPSJzdDEiIGQ9Ik01LjA3NSAxMy4zNTZhMiAyIDAgMCAxIDEuNTQgMiAyLjA3IDIuMDcgMCAwIDEtNC4xMS4zNTQgMi4wNyAyLjA3IDAgMCAxIDEuNTItMi4zNTR2LTIuOTZoMXptLS41MyAzYTEgMSAwIDEgMCAwLTIgMSAxIDAgMSAwIDAgMnptMTEuMDgtM2EyLjA3IDIuMDcgMCAwIDEtLjUzIDQuMDcxIDIuMDcgMi4wNyAwIDAgMS0uNTMtNC4wNzF2LTIuOTVoMS4wNnptLS41MyAzYTEgMSAwIDAgMCAuMzktMS45NCAxIDEgMCAwIDAtMS4yNjggMS4zMDcgMSAxIDAgMCAwIC44NzguNjMzem0tNC43NS0uNDNoMGEyLjA2IDIuMDYgMCAwIDEtLjUgNC4wNTggMi4wNiAyLjA2IDAgMCAxLS41LTQuMDU4di01LjVoMS4wNnptLS41NCAzYTEgMSAwIDAgMCAuNTUtMS44MzIgMSAxIDAgMCAwLTEuNDggMS4yMTIgMSAxIDAgMCAwIC45My42eiIvPiYjeGE7PC9zdmc+;opacity=0;" parent="c1tY_rsKCSuWT5S8O4aU-26" vertex="1">
          <mxGeometry width="30" height="30" relative="1" as="geometry">
            <mxPoint x="15" y="15" as="offset" />
          </mxGeometry>
        </mxCell>
        <mxCell id="c1tY_rsKCSuWT5S8O4aU-17" value="" style="strokeWidth=2;html=1;shape=mxgraph.flowchart.direct_data;whiteSpace=wrap;" parent="c1tY_rsKCSuWT5S8O4aU-26" vertex="1">
          <mxGeometry x="70.65217391304348" y="45.99000000000001" width="86.95652173913044" height="42.13" as="geometry" />
        </mxCell>
        <mxCell id="c1tY_rsKCSuWT5S8O4aU-22" value="Mosquitto" style="text;html=1;align=center;verticalAlign=middle;resizable=0;points=[];autosize=1;strokeColor=none;fillColor=none;" parent="c1tY_rsKCSuWT5S8O4aU-26" vertex="1">
          <mxGeometry x="70.65217391304348" y="51.74000000000001" width="70" height="30" as="geometry" />
        </mxCell>
        <mxCell id="c1tY_rsKCSuWT5S8O4aU-18" value="" style="shape=datastore;whiteSpace=wrap;html=1;" parent="c1tY_rsKCSuWT5S8O4aU-26" vertex="1">
          <mxGeometry x="171.19565217391306" y="12.560000000000002" width="70.65217391304348" height="59" as="geometry" />
        </mxCell>
        <mxCell id="c1tY_rsKCSuWT5S8O4aU-24" value="&lt;div&gt;Postgresql&lt;/div&gt;&lt;div&gt;&lt;br&gt;&lt;/div&gt;" style="text;html=1;align=center;verticalAlign=middle;resizable=0;points=[];autosize=1;strokeColor=none;fillColor=none;" parent="c1tY_rsKCSuWT5S8O4aU-26" vertex="1">
          <mxGeometry x="163.04347826086956" y="35.56" width="80" height="40" as="geometry" />
        </mxCell>
        <mxCell id="G6bIGcvWe1hNYtXJWKbi-19" value="" style="shape=image;verticalLabelPosition=bottom;labelBackgroundColor=default;verticalAlign=top;aspect=fixed;imageAspect=0;image=https://img.thingsboard.io/cloud.svg;" vertex="1" parent="c1tY_rsKCSuWT5S8O4aU-26">
          <mxGeometry y="0.040000000000020464" width="60.65" height="35.52" as="geometry" />
        </mxCell>
        <mxCell id="G6bIGcvWe1hNYtXJWKbi-20" value="" style="shape=image;verticalLabelPosition=bottom;labelBackgroundColor=default;verticalAlign=top;aspect=fixed;imageAspect=0;image=https://projects.eclipse.org/sites/default/files/mosquitto-200px.png;" vertex="1" parent="c1tY_rsKCSuWT5S8O4aU-26">
          <mxGeometry x="9.35" y="39.64" width="40.98" height="40.36" as="geometry" />
        </mxCell>
        <mxCell id="c1tY_rsKCSuWT5S8O4aU-23" value="" style="image;aspect=fixed;html=1;points=[];align=center;fontSize=12;image=img/lib/azure2/other/API_Proxy.svg;rotation=90;" parent="1" vertex="1">
          <mxGeometry x="470.65" y="344.75" width="48" height="26.82" as="geometry" />
        </mxCell>
        <mxCell id="c1tY_rsKCSuWT5S8O4aU-30" value="REST API" style="text;html=1;align=center;verticalAlign=middle;resizable=0;points=[];autosize=1;strokeColor=none;fillColor=none;" parent="1" vertex="1">
          <mxGeometry x="410.65" y="324" width="80" height="30" as="geometry" />
        </mxCell>
        <mxCell id="c1tY_rsKCSuWT5S8O4aU-42" value="&lt;b&gt;Synchronizer&lt;/b&gt;" style="text;html=1;align=center;verticalAlign=middle;resizable=0;points=[];autosize=1;strokeColor=none;fillColor=none;" parent="1" vertex="1">
          <mxGeometry x="694.15" y="174.41" width="100" height="30" as="geometry" />
        </mxCell>
        <mxCell id="c1tY_rsKCSuWT5S8O4aU-43" value="" style="strokeColor=#dddddd;shadow=1;strokeWidth=1;rounded=1;absoluteArcSize=1;arcSize=2;" parent="1" vertex="1">
          <mxGeometry x="420.65" y="25" width="150" height="44" as="geometry" />
        </mxCell>
        <mxCell id="c1tY_rsKCSuWT5S8O4aU-44" value="&lt;b&gt;Frontend&lt;/b&gt;" style="sketch=0;dashed=0;connectable=0;html=1;fillColor=#757575;strokeColor=none;shape=mxgraph.gcp2.frontend_platform_services;part=1;labelPosition=right;verticalLabelPosition=middle;align=left;verticalAlign=middle;spacingLeft=5;fontSize=12;" parent="c1tY_rsKCSuWT5S8O4aU-43" vertex="1">
          <mxGeometry y="0.5" width="32" height="32" relative="1" as="geometry">
            <mxPoint x="5" y="-16" as="offset" />
          </mxGeometry>
        </mxCell>
        <mxCell id="G6bIGcvWe1hNYtXJWKbi-1" value="" style="shape=image;verticalLabelPosition=bottom;labelBackgroundColor=default;verticalAlign=top;aspect=fixed;imageAspect=0;image=https://upload.wikimedia.org/wikipedia/commons/thumb/c/cf/Angular_full_color_logo.svg/1200px-Angular_full_color_logo.svg.png;" vertex="1" parent="c1tY_rsKCSuWT5S8O4aU-43">
          <mxGeometry x="109" y="4.5" width="35" height="35" as="geometry" />
        </mxCell>
        <mxCell id="c1tY_rsKCSuWT5S8O4aU-45" value="" style="image;aspect=fixed;perimeter=ellipsePerimeter;html=1;align=center;shadow=0;dashed=0;fontColor=#4277BB;labelBackgroundColor=default;fontSize=12;spacingTop=3;image=img/lib/ibm/infrastructure/mobile_backend.svg;" parent="1" vertex="1">
          <mxGeometry x="519.8" y="174.41" width="30" height="30" as="geometry" />
        </mxCell>
        <mxCell id="c1tY_rsKCSuWT5S8O4aU-49" value="&lt;b&gt;Backend&lt;/b&gt;" style="text;html=1;align=center;verticalAlign=middle;resizable=0;points=[];autosize=1;strokeColor=none;fillColor=none;" parent="1" vertex="1">
          <mxGeometry x="448.65" y="174.41" width="70" height="30" as="geometry" />
        </mxCell>
        <mxCell id="c1tY_rsKCSuWT5S8O4aU-50" value="&lt;b&gt;Postgresql&lt;/b&gt;" style="shape=datastore;whiteSpace=wrap;html=1;" parent="1" vertex="1">
          <mxGeometry x="207.14565217391305" y="161.5" width="70.65217391304348" height="59" as="geometry" />
        </mxCell>
        <mxCell id="c1tY_rsKCSuWT5S8O4aU-51" value="&lt;div&gt;&lt;b&gt;Korisnik&lt;/b&gt;&lt;/div&gt;&lt;div&gt;&lt;b&gt;&lt;br&gt;&lt;/b&gt;&lt;/div&gt;" style="sketch=0;outlineConnect=0;fontColor=#232F3E;gradientColor=none;strokeColor=#232F3E;fillColor=#ffffff;dashed=0;verticalLabelPosition=bottom;verticalAlign=top;align=center;html=1;fontSize=12;fontStyle=0;aspect=fixed;shape=mxgraph.aws4.resourceIcon;resIcon=mxgraph.aws4.user;" parent="1" vertex="1">
          <mxGeometry x="710.15" y="20" width="54" height="54" as="geometry" />
        </mxCell>
        <mxCell id="c1tY_rsKCSuWT5S8O4aU-54" value="" style="endArrow=none;dashed=1;html=1;rounded=0;entryX=0.25;entryY=1;entryDx=0;entryDy=0;exitX=0.5;exitY=0;exitDx=0;exitDy=0;" parent="1" source="c1tY_rsKCSuWT5S8O4aU-12" target="c1tY_rsKCSuWT5S8O4aU-26" edge="1">
          <mxGeometry width="50" height="50" relative="1" as="geometry">
            <mxPoint x="330.65" y="530" as="sourcePoint" />
            <mxPoint x="380.65" y="480" as="targetPoint" />
          </mxGeometry>
        </mxCell>
        <mxCell id="c1tY_rsKCSuWT5S8O4aU-55" value="" style="endArrow=none;dashed=1;html=1;rounded=0;entryX=0.5;entryY=1;entryDx=0;entryDy=0;exitX=0.5;exitY=0;exitDx=0;exitDy=0;" parent="1" source="c1tY_rsKCSuWT5S8O4aU-1" target="c1tY_rsKCSuWT5S8O4aU-26" edge="1">
          <mxGeometry width="50" height="50" relative="1" as="geometry">
            <mxPoint x="366" y="559" as="sourcePoint" />
            <mxPoint x="453" y="459" as="targetPoint" />
          </mxGeometry>
        </mxCell>
        <mxCell id="c1tY_rsKCSuWT5S8O4aU-56" value="" style="endArrow=none;dashed=1;html=1;rounded=0;entryX=0.5;entryY=0;entryDx=0;entryDy=0;exitX=0.75;exitY=1;exitDx=0;exitDy=0;" parent="1" source="c1tY_rsKCSuWT5S8O4aU-26" target="c1tY_rsKCSuWT5S8O4aU-6" edge="1">
          <mxGeometry width="50" height="50" relative="1" as="geometry">
            <mxPoint x="710" y="540" as="sourcePoint" />
            <mxPoint x="797" y="440" as="targetPoint" />
          </mxGeometry>
        </mxCell>
        <mxCell id="c1tY_rsKCSuWT5S8O4aU-57" value="HTTP" style="text;html=1;align=center;verticalAlign=middle;resizable=0;points=[];autosize=1;strokeColor=none;fillColor=none;" parent="1" vertex="1">
          <mxGeometry x="610.65" y="20" width="50" height="30" as="geometry" />
        </mxCell>
        <mxCell id="c1tY_rsKCSuWT5S8O4aU-58" value="MQTT" style="text;html=1;align=center;verticalAlign=middle;resizable=0;points=[];autosize=1;strokeColor=none;fillColor=none;rotation=0;" parent="1" vertex="1">
          <mxGeometry x="350" y="480" width="60" height="30" as="geometry" />
        </mxCell>
        <mxCell id="c1tY_rsKCSuWT5S8O4aU-61" value="MQTT" style="text;html=1;align=center;verticalAlign=middle;resizable=0;points=[];autosize=1;strokeColor=none;fillColor=none;rotation=0;" parent="1" vertex="1">
          <mxGeometry x="620.65" y="480" width="60" height="30" as="geometry" />
        </mxCell>
        <mxCell id="c1tY_rsKCSuWT5S8O4aU-62" value="MQTT" style="text;html=1;align=center;verticalAlign=middle;resizable=0;points=[];autosize=1;strokeColor=none;fillColor=none;rotation=0;" parent="1" vertex="1">
          <mxGeometry x="458.65" y="500" width="60" height="30" as="geometry" />
        </mxCell>
        <mxCell id="c1tY_rsKCSuWT5S8O4aU-66" value="postgresql" style="text;html=1;align=center;verticalAlign=middle;resizable=0;points=[];autosize=1;strokeColor=none;fillColor=none;" parent="1" vertex="1">
          <mxGeometry x="330.65" y="169" width="80" height="30" as="geometry" />
        </mxCell>
        <mxCell id="c1tY_rsKCSuWT5S8O4aU-67" value="" style="endArrow=classic;startArrow=classic;html=1;rounded=0;exitX=1.047;exitY=0.243;exitDx=0;exitDy=0;exitPerimeter=0;entryX=0.5;entryY=1;entryDx=0;entryDy=0;" parent="1" source="c1tY_rsKCSuWT5S8O4aU-30" target="c1tY_rsKCSuWT5S8O4aU-46" edge="1">
          <mxGeometry width="50" height="50" relative="1" as="geometry">
            <mxPoint x="530" y="350" as="sourcePoint" />
            <mxPoint x="494" y="240" as="targetPoint" />
          </mxGeometry>
        </mxCell>
        <mxCell id="c1tY_rsKCSuWT5S8O4aU-68" value="HTTP" style="text;html=1;align=center;verticalAlign=middle;resizable=0;points=[];autosize=1;strokeColor=none;fillColor=none;" parent="1" vertex="1">
          <mxGeometry x="492.65000000000003" y="260" width="50" height="30" as="geometry" />
        </mxCell>
        <mxCell id="c1tY_rsKCSuWT5S8O4aU-70" value="HTTP" style="text;html=1;align=center;verticalAlign=middle;resizable=0;points=[];autosize=1;strokeColor=none;fillColor=none;" parent="1" vertex="1">
          <mxGeometry x="490.65" y="100" width="50" height="30" as="geometry" />
        </mxCell>
        <mxCell id="c1tY_rsKCSuWT5S8O4aU-71" value="" style="endArrow=classic;startArrow=classic;html=1;rounded=0;exitX=1;exitY=0.5;exitDx=0;exitDy=0;" parent="1" source="c1tY_rsKCSuWT5S8O4aU-43" target="c1tY_rsKCSuWT5S8O4aU-51" edge="1">
          <mxGeometry width="50" height="50" relative="1" as="geometry">
            <mxPoint x="530" y="325" as="sourcePoint" />
            <mxPoint x="580" y="275" as="targetPoint" />
          </mxGeometry>
        </mxCell>
        <mxCell id="G6bIGcvWe1hNYtXJWKbi-3" value="" style="shape=image;verticalLabelPosition=bottom;labelBackgroundColor=default;verticalAlign=top;aspect=fixed;imageAspect=0;image=https://connect-it.hr/wp-content/uploads/2023/03/asp.net_.png;" vertex="1" parent="1">
          <mxGeometry x="424.65000000000003" y="182.53" width="74.15" height="30.47" as="geometry" />
        </mxCell>
        <mxCell id="G6bIGcvWe1hNYtXJWKbi-4" value="" style="verticalLabelPosition=bottom;html=1;verticalAlign=top;align=center;strokeColor=none;fillColor=#00BEF2;shape=mxgraph.azure.sql_datasync;" vertex="1" parent="1">
          <mxGeometry x="789.15" y="176" width="27.5" height="30" as="geometry" />
        </mxCell>
        <mxCell id="G6bIGcvWe1hNYtXJWKbi-5" value="" style="shape=image;verticalLabelPosition=bottom;labelBackgroundColor=default;verticalAlign=top;aspect=fixed;imageAspect=0;image=https://education.oracle.com/file/general/p-80-java.png;" vertex="1" parent="1">
          <mxGeometry x="680" y="172" width="41" height="41" as="geometry" />
        </mxCell>
        <mxCell id="G6bIGcvWe1hNYtXJWKbi-7" value="" style="endArrow=classic;startArrow=classic;html=1;rounded=0;exitX=0.544;exitY=1.015;exitDx=0;exitDy=0;exitPerimeter=0;" edge="1" parent="1" source="c1tY_rsKCSuWT5S8O4aU-38">
          <mxGeometry width="50" height="50" relative="1" as="geometry">
            <mxPoint x="420" y="270" as="sourcePoint" />
            <mxPoint x="500" y="330" as="targetPoint" />
            <Array as="points">
              <mxPoint x="760" y="330" />
            </Array>
          </mxGeometry>
        </mxCell>
        <mxCell id="G6bIGcvWe1hNYtXJWKbi-8" value="JDBC" style="text;html=1;align=center;verticalAlign=middle;resizable=0;points=[];autosize=1;strokeColor=none;fillColor=none;" vertex="1" parent="1">
          <mxGeometry x="347.8" y="270" width="50" height="30" as="geometry" />
        </mxCell>
        <mxCell id="G6bIGcvWe1hNYtXJWKbi-9" value="HTTP" style="text;html=1;align=center;verticalAlign=middle;whiteSpace=wrap;rounded=0;" vertex="1" parent="1">
          <mxGeometry x="670.5" y="300" width="60" height="30" as="geometry" />
        </mxCell>
        <mxCell id="G6bIGcvWe1hNYtXJWKbi-11" value="" style="endArrow=none;dashed=1;html=1;rounded=0;exitX=0.935;exitY=0.594;exitDx=0;exitDy=0;exitPerimeter=0;" edge="1" parent="1" source="c1tY_rsKCSuWT5S8O4aU-48">
          <mxGeometry width="50" height="50" relative="1" as="geometry">
            <mxPoint x="180" y="300" as="sourcePoint" />
            <mxPoint x="680" y="190" as="targetPoint" />
            <Array as="points">
              <mxPoint x="240" y="300" />
              <mxPoint x="620" y="300" />
              <mxPoint x="620" y="190" />
            </Array>
          </mxGeometry>
        </mxCell>
        <mxCell id="G6bIGcvWe1hNYtXJWKbi-12" value="" style="image;aspect=fixed;html=1;points=[];align=center;fontSize=12;image=img/lib/azure2/other/API_Proxy.svg;rotation=90;" vertex="1" parent="1">
          <mxGeometry x="479.33000000000004" y="157.28" width="30.65" height="17.13" as="geometry" />
        </mxCell>
        <mxCell id="G6bIGcvWe1hNYtXJWKbi-13" value="" style="endArrow=classic;startArrow=classic;html=1;rounded=0;exitX=0.5;exitY=1;exitDx=0;exitDy=0;entryX=0.016;entryY=0.519;entryDx=0;entryDy=0;entryPerimeter=0;" edge="1" parent="1" source="c1tY_rsKCSuWT5S8O4aU-43" target="G6bIGcvWe1hNYtXJWKbi-12">
          <mxGeometry width="50" height="50" relative="1" as="geometry">
            <mxPoint x="440" y="210" as="sourcePoint" />
            <mxPoint x="490" y="140" as="targetPoint" />
          </mxGeometry>
        </mxCell>
        <mxCell id="c1tY_rsKCSuWT5S8O4aU-48" value="" style="image;aspect=fixed;html=1;points=[];align=center;fontSize=12;image=img/lib/azure2/other/API_Proxy.svg;rotation=90;shadow=0;" parent="1" vertex="1">
          <mxGeometry x="228.46999999999997" y="213" width="28" height="15.64" as="geometry" />
        </mxCell>
        <mxCell id="G6bIGcvWe1hNYtXJWKbi-14" value="" style="endArrow=none;dashed=1;html=1;rounded=0;exitX=0.935;exitY=0.594;exitDx=0;exitDy=0;exitPerimeter=0;" edge="1" parent="1" source="c1tY_rsKCSuWT5S8O4aU-48">
          <mxGeometry width="50" height="50" relative="1" as="geometry">
            <mxPoint x="440" y="250" as="sourcePoint" />
            <mxPoint x="420" y="200" as="targetPoint" />
            <Array as="points">
              <mxPoint x="340" y="234" />
              <mxPoint x="340" y="200" />
            </Array>
          </mxGeometry>
        </mxCell>
      </root>
    </mxGraphModel>
  </diagram>
</mxfile>
